<?xml version="1.0" encoding="utf-8"?>
<!-- Generator: Adobe Illustrator 25.2.1, SVG Export Plug-In . SVG Version: 6.00 Build 0)  -->
<svg version="1.1" id="Capa_1" xmlns="http://www.w3.org/2000/svg" xmlns:xlink="http://www.w3.org/1999/xlink" x="0px" y="0px"
	 viewBox="0 0 841.89 244.28" style="enable-background:new 0 0 841.89 244.28;" xml:space="preserve">
<style type="text/css">
	.st0{fill:#004D71;}
	.st1{fill:#4C9C2E;}
	.st2{fill:#B5DC79;}
	.st3{fill:#1D1D1B;}
</style>
<g>
	<path class="st0" d="M122.72,195.81c-41.38,0-74.87-33.83-74.3-75.35c0.53-39,31.73-71.33,70.69-73.18
		c13.47-0.64,26.19,2.32,37.3,7.99c3.92,2,8.71,0.4,10.62-3.55l1.97-4.08c1.87-3.86,0.29-8.49-3.53-10.43
		C152.38,30.56,137.53,26.85,121.8,27c-49.63,0.47-90.88,39.9-93.45,89.47C25.53,170.95,68.86,216,122.72,216
		c16.06,0,31.17-4.02,44.4-11.09c3.69-1.97,5.11-6.54,3.29-10.3l-1.97-4.06c-1.95-4.03-6.85-5.57-10.8-3.46
		C147.23,192.65,135.35,195.81,122.72,195.81z"/>
	<path class="st1" d="M217.22,121.5c0-30.5-12.53-55.68-34.96-72.96l-5.81,11.99c-1.87,3.85-1.09,8.43,1.87,11.53
		c12.78,13.34,18.71,29.5,18.71,49.43c0,19.4-5.45,35.07-17.62,48.3c-2.85,3.1-3.56,7.59-1.73,11.38l5.92,12.21
		C205.29,176.08,217.22,151.42,217.22,121.5z"/>
	<path class="st2" d="M143.9,78.4l-33.2,67.64h17h5.89l8.83,13.6c0.76,1.18,2.48,1.18,3.25,0l8.83-13.6h6.46h16.14L143.9,78.4z"/>
	<path class="st1" d="M122.24,122.54L100.58,78.4L66.9,146.05h22.9l8.83,13.6c0.76,1.18,2.48,1.18,3.25,0l8.83-13.6l0,0
		L122.24,122.54z"/>
</g>
<g>
	<rect x="257.05" y="184.46" class="st3" width="84.42" height="3.33"/>
	<rect x="713.59" y="184.46" class="st3" width="84.42" height="3.33"/>
	<g>
		<path class="st3" d="M255.15,62.91v-0.09c0-9.26,6.93-16.85,16.75-16.85c6.05,0,9.68,2.09,12.8,5.07l-3.68,4.23
			c-2.65-2.42-5.4-4-9.17-4c-6.14,0-10.7,5.07-10.7,11.45v0.09c0,6.38,4.51,11.54,10.75,11.54c3.96,0,6.56-1.58,9.35-4.19l3.68,3.72
			c-3.3,3.58-7.17,5.77-13.22,5.77C262.22,79.67,255.15,72.27,255.15,62.91z"/>
		<path class="st3" d="M288.61,62.91v-0.09c0-9.12,7.07-16.85,17.08-16.85s16.99,7.59,16.99,16.75v0.09
			c0,9.12-7.07,16.85-17.08,16.85C295.59,79.67,288.61,72.08,288.61,62.91z M316.68,62.91v-0.09c0-6.33-4.56-11.54-11.08-11.54
			c-6.47,0-10.98,5.12-10.98,11.45v0.09c0,6.33,4.56,11.54,11.08,11.54C312.16,74.36,316.68,69.24,316.68,62.91z"/>
		<path class="st3" d="M328.17,62.91v-0.09c0-9.12,7.07-16.85,17.08-16.85s16.99,7.59,16.99,16.75v0.09
			c0,9.12-7.07,16.85-17.08,16.85C335.15,79.67,328.17,72.08,328.17,62.91z M356.23,62.91v-0.09c0-6.33-4.56-11.54-11.08-11.54
			c-6.47,0-10.98,5.12-10.98,11.45v0.09c0,6.33,4.56,11.54,11.08,11.54C351.72,74.36,356.23,69.24,356.23,62.91z"/>
		<path class="st3" d="M369.17,46.53h12.84c7.63,0,12.38,4.33,12.38,10.89v0.09c0,7.26-5.82,11.12-13.03,11.12h-6.47v10.47h-5.72
			V46.53z M381.55,63.47c4.33,0,7.03-2.42,7.03-5.82v-0.09c0-3.86-2.75-5.82-7.03-5.82h-6.65v11.73H381.55z"/>
		<path class="st3" d="M400.26,46.53h24.15v5.12h-18.43v8.47h16.34v5.17h-16.34v8.7h18.66v5.12h-24.39V46.53z"/>
		<path class="st3" d="M431.44,46.53h14.52c4.1,0,7.31,1.21,9.4,3.26c1.72,1.81,2.7,4.19,2.7,7.03v0.09c0,5.35-3.21,8.56-7.73,9.87
			l8.8,12.33h-6.79l-8-11.36h-7.17v11.36h-5.72V46.53z M445.54,62.68c4.1,0,6.7-2.09,6.7-5.45v-0.09c0-3.54-2.47-5.4-6.75-5.4h-8.33
			v10.94H445.54z"/>
		<path class="st3" d="M476.63,46.3h5.31l14.33,32.81h-6.05l-3.3-7.87h-15.4l-3.35,7.87h-5.86L476.63,46.3z M484.82,66.17
			l-5.63-13.03l-5.58,13.03H484.82z"/>
		<path class="st3" d="M505.67,51.84h-10.38v-5.31h26.48v5.31H511.4v27.27h-5.72V51.84z"/>
		<path class="st3" d="M528.06,46.53h5.72v32.58h-5.72V46.53z"/>
		<path class="st3" d="M539.69,46.53h6.33l9.82,25.04l9.77-25.04h6.19l-13.5,32.81h-5.12L539.69,46.53z"/>
		<path class="st3" d="M584.28,46.3h5.31l14.33,32.81h-6.05l-3.3-7.87h-15.4l-3.35,7.87h-5.86L584.28,46.3z M592.47,66.17
			l-5.63-13.03l-5.58,13.03H592.47z"/>
		<path class="st3" d="M635.01,46.3h5.31l14.33,32.81h-6.05l-3.3-7.87h-15.4l-3.35,7.87h-5.86L635.01,46.3z M643.2,66.17
			l-5.63-13.03l-5.58,13.03H643.2z"/>
		<path class="st3" d="M656.74,62.91v-0.09c0-9.12,6.93-16.85,16.8-16.85c5.63,0,9.17,1.58,12.52,4.42l-3.63,4.33
			c-2.51-2.14-5.03-3.44-9.12-3.44c-5.96,0-10.56,5.21-10.56,11.45v0.09c0,6.7,4.42,11.63,11.08,11.63c3.12,0,5.86-0.98,7.86-2.47
			v-6.05h-8.33v-5.03h13.87V74.6c-3.26,2.75-7.82,5.07-13.59,5.07C663.44,79.67,656.74,72.41,656.74,62.91z"/>
		<path class="st3" d="M694.67,46.53h14.52c4.1,0,7.31,1.21,9.4,3.26c1.72,1.81,2.7,4.19,2.7,7.03v0.09c0,5.35-3.21,8.56-7.73,9.87
			l8.8,12.33h-6.79l-8-11.36h-7.17v11.36h-5.72V46.53z M708.77,62.68c4.1,0,6.7-2.09,6.7-5.45v-0.09c0-3.54-2.47-5.4-6.75-5.4h-8.33
			v10.94H708.77z"/>
		<path class="st3" d="M726.88,62.91v-0.09c0-9.12,7.07-16.85,17.08-16.85c10.01,0,16.99,7.59,16.99,16.75v0.09
			c0,9.12-7.07,16.85-17.08,16.85S726.88,72.08,726.88,62.91z M754.94,62.91v-0.09c0-6.33-4.56-11.54-11.08-11.54
			c-6.47,0-10.98,5.12-10.98,11.45v0.09c0,6.33,4.56,11.54,11.08,11.54C750.42,74.36,754.94,69.24,754.94,62.91z"/>
		<path class="st3" d="M767.88,46.53h12.84c7.63,0,12.38,4.33,12.38,10.89v0.09c0,7.26-5.82,11.12-13.03,11.12h-6.47v10.47h-5.72
			V46.53z M780.26,63.47c4.33,0,7.03-2.42,7.03-5.82v-0.09c0-3.86-2.75-5.82-7.03-5.82h-6.66v11.73H780.26z"/>
		<path class="st3" d="M793.29,72.69h6.19v6.42h-6.19V72.69z"/>
	</g>
	<g>
		<path class="st3" d="M254.97,125.18v-0.12c0-11.92,8.99-21.69,21.87-21.69c7.85,0,12.7,2.64,16.53,6.47l-5.87,6.77
			c-3.29-2.94-6.47-4.73-10.72-4.73c-7.07,0-12.16,5.87-12.16,13.06v0.12c0,7.19,4.97,13.18,12.16,13.18
			c4.79,0,7.73-1.86,11.02-4.91l5.87,5.93c-4.31,4.61-9.05,7.49-17.19,7.49C264.14,146.75,254.97,137.22,254.97,125.18z"/>
		<path class="st3" d="M315.41,103.79h8.51l17.97,42.23h-9.65l-3.83-9.41h-17.73l-3.83,9.41h-9.41L315.41,103.79z M325.12,128.48
			l-5.57-13.6l-5.57,13.6H325.12z"/>
		<path class="st3" d="M348.36,104.09h19.17c5.33,0,9.41,1.44,12.22,4.25c2.4,2.4,3.59,5.57,3.59,9.58v0.12
			c0,6.77-3.65,11.02-8.99,13l10.24,14.98h-10.78l-8.99-13.42h-7.25v13.42h-9.23V104.09z M366.93,124.46c4.55,0,7.07-2.34,7.07-5.93
			v-0.12c0-4.01-2.7-5.99-7.25-5.99h-9.17v12.04H366.93z"/>
		<path class="st3" d="M391.67,104.09h9.23v33.55h20.91v8.39h-30.13V104.09z"/>
		<path class="st3" d="M424.5,125.18v-0.12c0-11.92,9.41-21.69,22.34-21.69s22.22,9.64,22.22,21.57v0.12
			c0,11.92-9.4,21.69-22.34,21.69C433.79,146.75,424.5,137.1,424.5,125.18z M459.43,125.18v-0.12c0-7.19-5.27-13.18-12.7-13.18
			c-7.43,0-12.58,5.87-12.58,13.06v0.12c0,7.19,5.27,13.18,12.7,13.18S459.43,132.37,459.43,125.18z"/>
		<path class="st3" d="M474.1,139.92l5.45-6.53c3.83,3.12,7.73,5.09,12.52,5.09c3.83,0,6.05-1.5,6.05-3.95v-0.12
			c0-2.34-1.44-3.59-8.45-5.33c-8.51-2.1-13.9-4.55-13.9-12.82v-0.12c0-7.61,6.05-12.64,14.68-12.64c6.17,0,11.26,1.92,15.58,5.33
			l-4.79,6.95c-3.77-2.58-7.31-4.13-10.9-4.13c-3.59,0-5.39,1.56-5.39,3.65v0.12c0,2.82,1.8,3.59,9.05,5.51
			c8.51,2.28,13.3,5.27,13.3,12.58v0.12c0,8.33-6.35,13-15.4,13C485.49,146.63,479.13,144.47,474.1,139.92z"/>
		<path class="st3" d="M531.43,125.18v-0.12c0-11.92,8.99-21.69,21.87-21.69c7.85,0,12.7,2.64,16.53,6.47l-5.87,6.77
			c-3.29-2.94-6.47-4.73-10.72-4.73c-7.07,0-12.16,5.87-12.16,13.06v0.12c0,7.19,4.97,13.18,12.16,13.18
			c4.79,0,7.73-1.86,11.02-4.91l5.87,5.93c-4.31,4.61-9.05,7.49-17.19,7.49C540.6,146.75,531.43,137.22,531.43,125.18z"/>
		<path class="st3" d="M591.88,103.79h8.51l17.97,42.23h-9.64l-3.83-9.41h-17.73l-3.83,9.41h-9.41L591.88,103.79z M601.58,128.48
			l-5.57-13.6l-5.57,13.6H601.58z"/>
		<path class="st3" d="M621.35,139.92l5.45-6.53c3.83,3.12,7.73,5.09,12.52,5.09c3.83,0,6.05-1.5,6.05-3.95v-0.12
			c0-2.34-1.44-3.59-8.45-5.33c-8.51-2.1-13.9-4.55-13.9-12.82v-0.12c0-7.61,6.05-12.64,14.68-12.64c6.17,0,11.26,1.92,15.58,5.33
			l-4.79,6.95c-3.77-2.58-7.31-4.13-10.9-4.13c-3.59,0-5.39,1.56-5.39,3.65v0.12c0,2.82,1.8,3.59,9.05,5.51
			c8.51,2.28,13.3,5.27,13.3,12.58v0.12c0,8.33-6.35,13-15.4,13C632.73,146.63,626.38,144.47,621.35,139.92z"/>
		<path class="st3" d="M676.04,103.79h8.51l17.97,42.23h-9.64l-3.83-9.41h-17.73l-3.83,9.41h-9.41L676.04,103.79z M685.75,128.48
			l-5.57-13.6l-5.57,13.6H685.75z"/>
		<path class="st3" d="M708.99,104.09h16.35c13.18,0,22.29,9.05,22.29,20.85v0.12c0,11.8-9.11,20.97-22.29,20.97h-16.35V104.09z
			 M718.22,112.42v25.28h7.13c7.49,0,12.64-5.09,12.64-12.52v-0.12c0-7.43-5.15-12.64-12.64-12.64H718.22z"/>
		<path class="st3" d="M753.98,125.18v-0.12c0-11.92,9.41-21.69,22.34-21.69c12.94,0,22.23,9.64,22.23,21.57v0.12
			c0,11.92-9.41,21.69-22.34,21.69C763.26,146.75,753.98,137.1,753.98,125.18z M788.9,125.18v-0.12c0-7.19-5.27-13.18-12.7-13.18
			c-7.43,0-12.58,5.87-12.58,13.06v0.12c0,7.19,5.27,13.18,12.7,13.18C783.75,138.24,788.9,132.37,788.9,125.18z"/>
	</g>
	<g>
		<g>
			<path class="st3" d="M363.34,171.76h10.7c9.02,0,15.25,6.19,15.25,14.27v0.08c0,8.08-6.23,14.35-15.25,14.35h-10.7V171.76z
				 M368.38,176.35v19.52h5.66c6.03,0,9.96-4.06,9.96-9.68v-0.08c0-5.62-3.94-9.76-9.96-9.76H368.38z"/>
			<path class="st3" d="M393.64,189.72v-0.08c0-6.23,4.39-11.27,10.58-11.27c6.89,0,10.37,5.41,10.37,11.64
				c0,0.45-0.04,0.9-0.08,1.39H398.6c0.53,3.57,2.99,5.49,6.23,5.49c2.46,0,4.1-0.9,5.86-2.58l2.91,2.58
				c-2.09,2.46-4.88,4.06-8.86,4.06C398.52,200.96,393.64,196.4,393.64,189.72z M409.67,188.12c-0.33-3.16-2.21-5.7-5.49-5.7
				c-3.07,0-5.17,2.3-5.62,5.7H409.67z"/>
			<path class="st3" d="M431.19,186.2v-0.08c0-8.16,6.11-14.84,14.76-14.84c5.33,0,8.53,1.85,11.28,4.47l-3.24,3.73
				c-2.34-2.13-4.76-3.53-8.08-3.53c-5.41,0-9.43,4.47-9.43,10.09v0.08c0,5.62,3.98,10.17,9.47,10.17c3.49,0,5.78-1.39,8.24-3.69
				l3.24,3.28c-2.91,3.16-6.31,5.08-11.64,5.08C437.43,200.96,431.19,194.44,431.19,186.2z"/>
			<path class="st3" d="M460.72,194.23v-0.08c0-4.72,3.69-6.97,8.98-6.97c2.46,0,4.14,0.37,5.82,0.9v-0.53
				c0-3.12-1.89-4.72-5.37-4.72c-2.46,0-4.22,0.53-6.19,1.35l-1.35-3.9c2.42-1.02,4.76-1.76,8.2-1.76c3.24,0,5.62,0.82,7.17,2.42
				c1.6,1.6,2.34,3.85,2.34,6.68v12.83h-4.84v-2.71c-1.48,1.76-3.73,3.16-7.05,3.16C464.37,200.91,460.72,198.62,460.72,194.23z
				 M475.6,192.67v-1.48c-1.27-0.49-2.95-0.86-4.92-0.86c-3.24,0-5.08,1.31-5.08,3.61v0.08c0,2.09,1.8,3.28,4.22,3.28
				C473.1,197.31,475.6,195.46,475.6,192.67z"/>
			<path class="st3" d="M484.5,197.63l2.21-3.36c2.42,1.76,4.84,2.67,7.09,2.67c2.13,0,3.36-0.9,3.36-2.34v-0.08
				c0-1.64-2.3-2.26-4.84-3.03c-3.16-0.86-6.76-2.21-6.76-6.31v-0.08c0-4.14,3.4-6.64,7.71-6.64c2.75,0,5.66,0.94,7.95,2.46
				l-1.97,3.53c-2.09-1.27-4.3-2.05-6.11-2.05c-1.93,0-3.03,0.94-3.03,2.13v0.08c0,1.56,2.34,2.3,4.88,3.08
				c3.12,0.98,6.72,2.42,6.72,6.31v0.08c0,4.55-3.53,6.81-8.04,6.81C490.57,200.87,487.24,199.81,484.5,197.63z"/>
			<path class="st3" d="M506.88,170.78h5.33v4.71h-5.33V170.78z M507.05,178.82h5v21.65h-5V178.82z"/>
			<path class="st3" d="M518.77,170.53h5v29.93h-5V170.53z"/>
			<path class="st3" d="M529.15,189.68v-0.08c0-7.22,4.88-11.23,10.04-11.23c3.53,0,5.86,1.76,7.38,3.81v-11.64h4.96v29.93h-4.96
				v-3.61c-1.6,2.25-3.9,4.06-7.38,4.06C534.11,200.91,529.15,196.9,529.15,189.68z M546.66,189.68v-0.08
				c0-4.18-2.95-6.93-6.27-6.93c-3.4,0-6.23,2.67-6.23,6.93v0.08c0,4.18,2.83,6.93,6.23,6.93
				C543.7,196.61,546.66,193.82,546.66,189.68z"/>
			<path class="st3" d="M556.29,194.23v-0.08c0-4.72,3.69-6.97,8.98-6.97c2.46,0,4.14,0.37,5.82,0.9v-0.53
				c0-3.12-1.89-4.72-5.37-4.72c-2.46,0-4.22,0.53-6.19,1.35l-1.35-3.9c2.42-1.02,4.76-1.76,8.2-1.76c3.24,0,5.62,0.82,7.17,2.42
				c1.6,1.6,2.34,3.85,2.34,6.68v12.83h-4.84v-2.71c-1.48,1.76-3.73,3.16-7.05,3.16C559.94,200.91,556.29,198.62,556.29,194.23z
				 M571.17,192.67v-1.48c-1.27-0.49-2.95-0.86-4.92-0.86c-3.24,0-5.08,1.31-5.08,3.61v0.08c0,2.09,1.8,3.28,4.22,3.28
				C568.67,197.31,571.17,195.46,571.17,192.67z"/>
			<path class="st3" d="M594.71,171.76h5.04v24.11h15.09v4.59h-20.13V171.76z"/>
			<path class="st3" d="M619.72,194.48v-11.4h-2.75v-4.26h2.75v-5.95h4.96v5.95h5.82v4.26h-5.82v10.62c0,1.93,0.98,2.71,2.67,2.71
				c1.07,0,2.09-0.25,3.07-0.74v4.06c-1.27,0.7-2.54,1.11-4.47,1.11C622.3,200.83,619.72,199.23,619.72,194.48z"/>
			<path class="st3" d="M633.82,189.68v-0.08c0-7.22,4.88-11.23,10.04-11.23c3.53,0,5.86,1.76,7.38,3.81v-11.64h4.96v29.93h-4.96
				v-3.61c-1.6,2.25-3.9,4.06-7.38,4.06C638.79,200.91,633.82,196.9,633.82,189.68z M651.33,189.68v-0.08
				c0-4.18-2.95-6.93-6.27-6.93c-3.4,0-6.23,2.67-6.23,6.93v0.08c0,4.18,2.83,6.93,6.23,6.93
				C648.38,196.61,651.33,193.82,651.33,189.68z"/>
			<path class="st3" d="M660.97,194.23v-0.08c0-4.72,3.69-6.97,8.98-6.97c2.46,0,4.14,0.37,5.82,0.9v-0.53
				c0-3.12-1.89-4.72-5.37-4.72c-2.46,0-4.22,0.53-6.19,1.35l-1.35-3.9c2.42-1.02,4.76-1.76,8.2-1.76c3.24,0,5.62,0.82,7.17,2.42
				c1.6,1.6,2.34,3.85,2.34,6.68v12.83h-4.84v-2.71c-1.48,1.76-3.73,3.16-7.05,3.16C664.62,200.91,660.97,198.62,660.97,194.23z
				 M675.85,192.67v-1.48c-1.27-0.49-2.95-0.86-4.92-0.86c-3.24,0-5.08,1.31-5.08,3.61v0.08c0,2.09,1.8,3.28,4.22,3.28
				C673.35,197.31,675.85,195.46,675.85,192.67z"/>
			<path class="st3" d="M686.18,194.81h5.45v5.66h-5.45V194.81z"/>
		</g>
	</g>
</g>
</svg>
