<?xml version="1.0" standalone="no"?>
<!DOCTYPE svg PUBLIC "-//W3C//DTD SVG 20010904//EN"
 "http://www.w3.org/TR/2001/REC-SVG-20010904/DTD/svg10.dtd">
<svg version="1.0" xmlns="http://www.w3.org/2000/svg"
 width="440.000000pt" height="440.000000pt" viewBox="0 0 440.000000 440.000000"
 preserveAspectRatio="xMidYMid meet">
<metadata>
Created by potrace 1.14, written by Peter Selinger 2001-2017
</metadata>
<g transform="translate(0.000000,440.000000) scale(0.100000,-0.100000)"
fill="#000000" stroke="none">
<path d="M2 3103 c3 -1139 5 -1288 18 -1284 50 12 98 23 118 27 12 2 34 7 50
10 15 3 43 7 62 10 19 3 49 7 65 10 122 20 595 27 735 11 164 -18 333 -47 443
-75 20 -6 37 -7 37 -4 0 3 5 1 12 -6 7 -7 22 -12 35 -12 13 0 31 -4 41 -9 9
-4 78 -28 152 -51 154 -50 191 -64 344 -135 43 -20 81 -34 84 -30 3 3 6 413 6
911 l1 906 85 52 c47 29 186 114 310 190 300 184 275 163 276 224 2 71 6 78
45 77 19 -1 39 2 44 6 8 6 12 116 6 161 -1 5 -100 67 -126 77 -5 2 -26 14 -45
26 -19 12 -55 33 -80 47 -142 80 -181 104 -175 109 2 3 35 4 73 3 64 -2 79 -8
263 -99 107 -53 198 -100 203 -105 5 -5 9 -52 8 -105 0 -93 1 -96 21 -93 20 3
22 9 22 76 -1 39 1 72 3 72 1 0 21 -9 43 -21 73 -37 143 -86 186 -131 36 -37
42 -50 45 -93 l3 -50 108 -70 c118 -77 251 -161 487 -310 85 -54 157 -99 158
-101 2 -1 4 -406 4 -899 l0 -896 22 -8 c11 -5 27 -6 34 -4 6 3 22 3 35 -1 22
-5 23 -8 22 -136 -1 -131 4 -152 35 -146 34 7 68 26 74 41 3 9 6 714 6 1566
l0 1549 -2200 0 -2200 0 2 -1287z m3100 1245 c14 -10 29 -18 33 -18 3 0 33
-18 65 -40 32 -22 64 -40 69 -40 6 0 11 -4 11 -10 0 -5 4 -10 10 -10 5 0 41
-20 80 -45 l70 -46 -25 -49 c-14 -28 -28 -50 -31 -50 -9 0 -66 32 -86 48 -22
18 -79 51 -100 58 -10 4 -18 10 -18 15 0 5 -5 9 -11 9 -6 0 -30 14 -54 30 -24
17 -46 30 -48 30 -11 0 -191 118 -194 127 -2 6 34 10 99 10 84 0 108 -4 130
-19z"/>
<path d="M3009 3848 c-1 -2 -2 -15 -3 -30 -3 -34 -1 -34 159 -33 l130 0 3 33
3 32 -145 0 c-80 0 -146 -1 -147 -2z"/>
<path d="M3224 3489 c2 -77 7 -143 11 -147 8 -8 157 -11 172 -3 9 5 -18 52
-82 149 -52 78 -97 142 -100 142 -3 0 -3 -63 -1 -141z"/>
<path d="M3461 3552 c77 -144 111 -202 117 -203 26 -5 254 -3 258 2 3 6 -337
236 -393 266 -20 10 -18 2 18 -65z"/>
<path d="M2766 3545 c-59 -41 -111 -75 -116 -75 -4 0 -10 -3 -12 -8 -1 -4 -36
-29 -76 -56 -40 -28 -68 -52 -62 -56 11 -7 227 -6 234 1 12 12 116 199 116
208 0 6 4 11 8 11 5 0 14 11 20 25 6 14 8 25 3 25 -4 0 -56 -34 -115 -75z"/>
<path d="M3004 3493 c-48 -71 -89 -135 -91 -143 -4 -13 9 -16 79 -15 l83 0 6
50 c11 89 20 235 15 235 -2 0 -44 -57 -92 -127z"/>
<path d="M2437 3202 l-48 -3 3 -77 3 -77 798 -1 c721 -1 797 1 798 15 4 45 1
132 -4 137 -6 6 -1466 11 -1550 6z"/>
<path d="M2394 2876 c-3 -7 -4 -42 -2 -77 l3 -64 798 -3 c754 -2 797 -1 798
15 1 25 1 115 0 131 -1 19 -1589 18 -1597 -2z"/>
<path d="M2610 2580 l-215 -5 0 -75 0 -75 798 -3 c754 -2 797 -1 798 15 4 95
3 136 -6 139 -16 7 -1138 10 -1375 4z"/>
<path d="M2394 2193 l1 -78 798 -3 c704 -2 797 0 798 13 1 8 1 38 1 65 0 28 0
57 -1 65 -1 13 -97 15 -800 15 l-799 0 2 -77z"/>
<path d="M2450 1960 l-55 -5 0 -75 0 -75 798 -3 797 -2 1 32 c3 75 1 119 -4
124 -7 7 -1464 11 -1537 4z"/>
<path d="M2394 1636 c-3 -7 -4 -42 -2 -77 l3 -64 798 -3 c754 -2 797 -1 798
15 1 26 2 105 0 126 -1 16 -46 17 -796 17 -660 0 -797 -2 -801 -14z"/>
<path d="M495 1537 c-6 -7 -30 -37 -55 -67 -25 -30 -47 -57 -50 -60 -3 -3 -30
-34 -60 -70 -30 -36 -59 -70 -65 -76 -5 -6 -25 -29 -43 -52 -19 -23 -43 -51
-54 -64 -11 -13 -37 -43 -57 -67 -20 -25 -53 -63 -73 -85 l-38 -41 0 -472 0
-473 29 0 c31 0 30 -1 126 175 15 28 35 64 45 80 10 17 70 122 132 235 63 113
125 223 138 245 12 22 41 74 63 115 22 41 50 91 62 110 12 19 28 50 36 68 8
17 17 32 21 32 5 0 8 4 8 9 0 4 38 77 85 161 47 84 85 156 85 160 0 5 3 10 8
12 13 6 63 106 55 111 -32 19 -383 31 -398 14z"/>
<path d="M84 1514 c-5 -1 -26 -5 -46 -9 l-38 -6 0 -99 c0 -55 4 -100 9 -100 5
0 24 24 42 53 19 28 41 60 49 69 9 10 26 36 39 58 l23 41 -34 -3 c-19 -1 -39
-3 -44 -4z"/>
<path d="M1144 1482 c-5 -4 -16 -20 -25 -37 -9 -16 -78 -139 -153 -272 -75
-133 -136 -247 -136 -252 0 -5 -3 -11 -8 -13 -4 -2 -34 -50 -66 -108 -62 -110
-88 -156 -143 -255 -19 -33 -40 -72 -46 -87 -6 -16 -15 -28 -19 -28 -4 0 -8
-4 -8 -9 0 -5 -48 -93 -106 -196 -58 -103 -108 -193 -111 -201 -4 -12 55 -14
405 -14 l409 0 14 47 c7 27 14 50 15 53 0 3 3 12 7 20 3 8 11 35 17 60 6 25
18 65 27 90 8 25 16 52 18 60 2 8 13 47 25 85 13 39 23 75 25 80 1 6 5 17 8
25 6 14 54 176 62 210 2 8 27 89 55 180 28 91 53 173 56 183 10 42 15 58 45
155 17 56 29 109 26 116 -3 7 -27 19 -54 26 -26 7 -52 16 -58 20 -5 4 -23 10
-40 14 -16 4 -48 11 -70 17 -22 5 -51 12 -65 15 -14 2 -33 7 -42 10 -34 10
-55 12 -64 6z"/>
<path d="M2718 1379 c-21 -6 -20 -7 14 -23 21 -9 40 -16 44 -16 3 0 20 -6 37
-14 41 -19 185 -67 217 -72 14 -3 36 -8 50 -13 32 -11 167 -38 235 -47 17 -2
48 -6 70 -10 65 -10 446 -13 500 -4 48 9 78 13 175 26 77 11 80 15 80 99 0 64
-2 75 -17 76 -72 5 -1387 3 -1405 -2z"/>
<path d="M1763 1267 c-4 -7 -8 -16 -9 -22 -2 -9 -87 -291 -174 -575 -16 -52
-38 -129 -50 -170 -12 -41 -24 -82 -27 -90 -3 -8 -7 -19 -8 -25 -2 -5 -12 -41
-25 -80 -12 -38 -23 -77 -25 -85 -2 -8 -17 -59 -33 -112 l-30 -98 379 0 379 0
1 28 c0 44 1 1004 0 1035 -1 25 -9 32 -78 63 -43 19 -126 59 -185 89 -77 38
-110 50 -115 42z"/>
<path d="M2379 942 c0 -37 -2 -155 -4 -262 -3 -107 -6 -302 -9 -433 l-5 -237
275 0 274 0 0 423 0 424 -112 27 c-62 15 -120 30 -128 33 -8 3 -19 7 -25 8 -5
1 -13 3 -17 5 -5 1 -11 3 -15 4 -26 6 -131 38 -148 45 -11 4 -35 13 -52 19
l-33 10 -1 -66z"/>
<path d="M4357 913 c-12 -21 20 -166 34 -157 10 6 12 124 3 148 -6 17 -29 22
-37 9z"/>
<path d="M4030 829 c-36 -8 -95 -16 -168 -24 -63 -6 -64 -9 -49 -80 3 -11 8
-45 12 -75 4 -30 9 -64 11 -75 1 -11 5 -38 9 -60 10 -67 16 -108 21 -145 2
-19 6 -46 9 -60 3 -14 7 -43 11 -65 3 -22 7 -51 10 -65 2 -14 7 -47 10 -75 4
-27 8 -57 10 -65 1 -8 3 -18 3 -22 1 -5 109 -8 241 -8 l240 0 0 83 0 82 -148
330 c-159 356 -148 340 -222 324z"/>
<path d="M3126 812 c-4 -6 -1 -706 3 -789 1 -10 63 -13 277 -13 l277 0 -8 53
c-12 92 -15 111 -20 162 -3 28 -8 57 -10 65 -2 8 -7 40 -10 70 -3 30 -8 62
-10 70 -2 8 -7 38 -10 65 -3 28 -8 66 -12 85 -3 19 -7 44 -8 55 -8 89 -20 147
-29 150 -6 2 -67 6 -136 9 -121 5 -169 9 -257 21 -23 3 -44 2 -47 -3z"/>
</g>
</svg>
